<svg xmlns="http://www.w3.org/2000/svg" width="512" height="512" viewBox="0 0 512 512"><path d="M256,0C115.3,0,0,115.3,0,256S115.3,512,256,512,512,396.7,512,256,396.7,0,256,0Z" fill="#ff3636"/><path d="M512,256c0,140.7-115.3,256-256,256V0C396.7,0,512,115.3,512,256Z" fill="#f40000"/><path d="M298.3,256l84.9,84.9-42.3,42.3L256,298.3l-84.9,84.9-42.3-42.3L213.7,256l-84.9-84.9,42.3-42.3L256,213.7l84.9-84.9,42.3,42.3Z" fill="#e7e7e7"/><path d="M298.3,256l84.9,84.9-42.3,42.3L256,298.3V213.7l84.9-84.9,42.3,42.3Z" fill="#d3d3d8"/></svg>